<?xml version="1.0" encoding="UTF-8"?>
<svg id="Camada_2" data-name="Camada 2" xmlns="http://www.w3.org/2000/svg" viewBox="0 0 520.15 197.13">
  <defs>
    <style>
      .cls-1 {
        fill: #00a0f4;
        stroke-width: 0px;
      }

      .cls-2 {
        fill: #fff;
        stroke: #fff;
        stroke-miterlimit: 10;
        stroke-width: 4px;
      }
    </style>
  </defs>
  <g id="Camada_1-2" data-name="Camada 1">
    <g>
      <g>
        <path class="cls-1" d="m65.75,5l-2.1,15h-20l-7.7,55h-15l7.7-55H8.65l2.1-15h55Z"/>
        <path class="cls-1" d="m117.4,43.05l-4.45,31.95h-15l3.9-27.75c.23-1.57.05-2.99-.55-4.27-.6-1.28-1.48-2.3-2.65-3.05s-2.53-1.12-4.1-1.12-3.04.38-4.42,1.12c-1.38.75-2.53,1.77-3.45,3.05-.92,1.28-1.49,2.71-1.72,4.27l-3.9,27.75h-15L76.5,0h15l-3.9,28.15c1.87-1.43,3.92-2.55,6.17-3.35,2.25-.8,4.56-1.2,6.93-1.2,3.6,0,6.74.88,9.42,2.62,2.68,1.75,4.7,4.09,6.05,7.02,1.35,2.93,1.76,6.2,1.22,9.8Z"/>
        <path class="cls-1" d="m143.75,76.3c-4.6,0-8.62-1.18-12.07-3.55-3.45-2.37-6.02-5.55-7.7-9.55-1.68-4-2.19-8.42-1.53-13.25.5-3.63,1.62-7.04,3.38-10.23,1.75-3.18,3.94-5.98,6.58-8.4,2.63-2.42,5.56-4.31,8.78-5.68,3.22-1.37,6.54-2.05,9.97-2.05,4,0,7.53.88,10.6,2.62s5.54,4.12,7.43,7.1c1.88,2.98,3.03,6.34,3.45,10.07.42,3.73-.02,7.58-1.32,11.55h-33.35c.3,1.17.78,2.22,1.42,3.17.65.95,1.51,1.71,2.58,2.27,1.07.57,2.37.87,3.9.9,1.47.03,2.88-.28,4.22-.95,1.35-.67,2.56-1.57,3.62-2.7l14.8,3.55c-2.63,4.43-6.17,8.06-10.6,10.88-4.43,2.82-9.15,4.22-14.15,4.22Zm-4.8-32.35h18.75c-.27-1.43-.79-2.7-1.58-3.8s-1.75-1.97-2.9-2.6c-1.15-.63-2.44-.95-3.88-.95s-2.77.32-4.1.95c-1.33.63-2.54,1.5-3.62,2.6s-1.97,2.37-2.67,3.8Z"/>
        <path class="cls-1" d="m234.15,76.3c-4.9,0-9.31-.95-13.22-2.85-3.92-1.9-7.19-4.53-9.83-7.88-2.63-3.35-4.51-7.23-5.62-11.62-1.12-4.4-1.33-9.08-.62-14.05.77-5.37,2.42-10.25,4.95-14.65,2.53-4.4,5.67-8.21,9.4-11.42s7.8-5.69,12.2-7.43c4.4-1.73,8.82-2.6,13.25-2.6,4.87,0,9.51,1.13,13.92,3.4,4.42,2.27,8.16,5.93,11.23,11l-14.4,7.2c-1.73-2.3-3.72-3.99-5.97-5.07-2.25-1.08-4.61-1.62-7.08-1.62s-4.99.52-7.48,1.55c-2.48,1.03-4.77,2.5-6.88,4.4-2.1,1.9-3.88,4.17-5.32,6.8-1.45,2.63-2.41,5.55-2.88,8.75-.4,2.93-.28,5.68.38,8.25.65,2.57,1.74,4.81,3.27,6.72,1.53,1.92,3.41,3.42,5.62,4.5,2.22,1.08,4.67,1.62,7.38,1.62,1.53,0,3.08-.21,4.65-.62,1.57-.42,3.13-1.04,4.7-1.88,1.57-.83,3.07-1.9,4.52-3.2,1.45-1.3,2.81-2.83,4.08-4.6h-9.4l1.85-13h27.1c-.5,5.23-1.91,10.16-4.22,14.77-2.32,4.62-5.31,8.69-8.98,12.23-3.67,3.53-7.77,6.3-12.32,8.3-4.55,2-9.31,3-14.28,3Z"/>
        <path class="cls-1" d="m319.7,25h15l-7,50h-15.05l-.1-4.5c-1.5,1.73-3.26,3.13-5.27,4.2-2.02,1.07-4.28,1.6-6.78,1.6-3.73,0-7.12-.7-10.17-2.1-3.05-1.4-5.63-3.34-7.75-5.83-2.12-2.48-3.64-5.35-4.58-8.6-.93-3.25-1.13-6.74-.6-10.48.5-3.57,1.62-6.9,3.38-10,1.75-3.1,3.95-5.82,6.6-8.17s5.62-4.19,8.9-5.52c3.28-1.33,6.69-2,10.22-2,2.87,0,5.39.59,7.58,1.77,2.18,1.18,4.08,2.66,5.67,4.42l-.05-4.8Zm-17.6,36.9c2.07,0,4.03-.53,5.88-1.6,1.85-1.07,3.41-2.5,4.68-4.3,1.27-1.8,2.05-3.8,2.35-6s.08-4.2-.67-6-1.9-3.23-3.45-4.3c-1.55-1.07-3.36-1.6-5.42-1.6s-4.02.53-5.85,1.6c-1.83,1.07-3.37,2.5-4.6,4.3-1.23,1.8-2,3.8-2.3,6s-.08,4.2.65,6,1.87,3.23,3.4,4.3c1.53,1.07,3.32,1.6,5.35,1.6Z"/>
        <path class="cls-1" d="m337.7,75l7-50h15l-.45,3.15c1.87-1.43,3.92-2.55,6.17-3.35,2.25-.8,4.56-1.2,6.92-1.2,3.33,0,6.29.76,8.88,2.27,2.58,1.52,4.58,3.54,5.98,6.08,2.1-2.53,4.65-4.56,7.65-6.08,3-1.52,6.15-2.27,9.45-2.27,3.6,0,6.74.88,9.42,2.62,2.68,1.75,4.7,4.09,6.05,7.02,1.35,2.93,1.76,6.2,1.23,9.8l-4.45,31.95h-15l3.9-27.75c.23-1.57.05-2.98-.55-4.25-.6-1.27-1.48-2.28-2.65-3.05-1.17-.77-2.53-1.15-4.1-1.15s-3.04.38-4.42,1.15c-1.38.77-2.54,1.78-3.47,3.05-.93,1.27-1.52,2.68-1.75,4.25l-3.9,27.75h-15l3.9-27.75c.23-1.57.06-2.98-.53-4.25-.58-1.27-1.47-2.28-2.65-3.05-1.18-.77-2.56-1.15-4.12-1.15s-2.99.38-4.38,1.15c-1.38.77-2.54,1.78-3.48,3.05-.93,1.27-1.52,2.68-1.75,4.25l-3.9,27.75h-15Z"/>
        <path class="cls-1" d="m447.35,76.3c-4.6,0-8.62-1.18-12.08-3.55s-6.02-5.55-7.7-9.55c-1.68-4-2.19-8.42-1.52-13.25.5-3.63,1.62-7.04,3.38-10.23,1.75-3.18,3.94-5.98,6.57-8.4,2.63-2.42,5.56-4.31,8.78-5.68,3.22-1.37,6.54-2.05,9.97-2.05,4,0,7.53.88,10.6,2.62,3.07,1.75,5.54,4.12,7.42,7.1,1.88,2.98,3.03,6.34,3.45,10.07.42,3.73-.03,7.58-1.33,11.55h-33.35c.3,1.17.77,2.22,1.42,3.17.65.95,1.51,1.71,2.58,2.27,1.07.57,2.37.87,3.9.9,1.47.03,2.88-.28,4.23-.95,1.35-.67,2.56-1.57,3.62-2.7l14.8,3.55c-2.63,4.43-6.17,8.06-10.6,10.88-4.43,2.82-9.15,4.22-14.15,4.22Zm-4.8-32.35h18.75c-.27-1.43-.79-2.7-1.58-3.8-.78-1.1-1.75-1.97-2.9-2.6-1.15-.63-2.44-.95-3.88-.95s-2.77.32-4.1.95c-1.33.63-2.54,1.5-3.62,2.6-1.08,1.1-1.98,2.37-2.67,3.8Z"/>
        <path class="cls-1" d="m480.1,75l6.95-50h15l-.4,3.15c1.87-1.43,3.92-2.55,6.17-3.35,2.25-.8,4.56-1.2,6.92-1.2,1.8,0,3.6.27,5.4.8l-8.05,15.2c-1.07-.53-2.23-.8-3.5-.8-1.57,0-3.04.38-4.42,1.12-1.38.75-2.53,1.77-3.45,3.05-.92,1.28-1.49,2.71-1.73,4.27l-3.9,27.75h-15Z"/>
        <path class="cls-1" d="m186.73,196.3c-4.73,0-9.05-.94-12.95-2.82-3.9-1.88-7.19-4.49-9.88-7.83-2.68-3.33-4.61-7.19-5.78-11.58-1.17-4.38-1.4-9.08-.7-14.08.7-5.03,2.25-9.74,4.65-14.12,2.4-4.38,5.41-8.23,9.02-11.55,3.62-3.32,7.64-5.92,12.08-7.8,4.43-1.88,9.02-2.83,13.75-2.83,5.67,0,10.7,1.31,15.1,3.92,4.4,2.62,7.87,6.11,10.4,10.48l-14.45,7.2c-1.43-2-3.28-3.6-5.55-4.8s-4.8-1.8-7.6-1.8-5.25.55-7.75,1.65c-2.5,1.1-4.78,2.62-6.85,4.57-2.07,1.95-3.78,4.21-5.15,6.78-1.37,2.57-2.25,5.33-2.65,8.3-.4,2.93-.28,5.68.35,8.25.63,2.57,1.7,4.83,3.2,6.78s3.35,3.48,5.55,4.6c2.2,1.12,4.63,1.67,7.3,1.67,2.8,0,5.5-.61,8.1-1.82,2.6-1.22,4.92-2.84,6.95-4.88l12.35,7.3c-3.73,4.33-8.17,7.82-13.3,10.45-5.13,2.63-10.53,3.95-16.2,3.95Z"/>
        <path class="cls-1" d="m223.48,195l10.5-75h15l-10.5,75h-15Z"/>
        <path class="cls-1" d="m251.03,176.85l4.45-31.85h15l-3.9,27.65c-.2,1.57,0,2.99.58,4.27.58,1.28,1.47,2.3,2.65,3.05s2.54,1.12,4.08,1.12,3.04-.38,4.42-1.12,2.54-1.77,3.48-3.05c.93-1.28,1.5-2.71,1.7-4.27l3.9-27.65h15l-6.95,50h-15l.4-3.25c-1.87,1.43-3.92,2.55-6.17,3.35-2.25.8-4.56,1.2-6.92,1.2-3.57,0-6.7-.88-9.4-2.62s-4.72-4.09-6.05-7.02c-1.33-2.93-1.75-6.2-1.25-9.8Z"/>
        <path class="cls-1" d="m340.28,143.6c4.87,0,9.13,1.18,12.8,3.55,3.67,2.37,6.41,5.54,8.23,9.52,1.82,3.98,2.38,8.39,1.67,13.23-.5,3.63-1.66,7.05-3.48,10.25s-4.11,6.01-6.88,8.42c-2.77,2.42-5.83,4.31-9.2,5.67-3.37,1.37-6.88,2.05-10.55,2.05-2.63,0-4.92-.57-6.88-1.7-1.95-1.13-3.57-2.57-4.88-4.3l-.65,4.7h-15l10.5-75h15l-4.15,29.6c1.8-1.77,3.83-3.21,6.1-4.33,2.27-1.12,4.72-1.67,7.35-1.67Zm-5.55,38.2c2.07,0,4.02-.53,5.88-1.6,1.85-1.07,3.4-2.5,4.65-4.3s2.03-3.8,2.33-6c.3-2.17.08-4.15-.67-5.95s-1.89-3.24-3.42-4.33c-1.53-1.08-3.33-1.62-5.4-1.62s-3.97.54-5.8,1.62c-1.83,1.08-3.38,2.53-4.65,4.33s-2.05,3.78-2.35,5.95c-.3,2.2-.08,4.2.67,6s1.89,3.23,3.42,4.3c1.53,1.07,3.32,1.6,5.35,1.6Z"/>
      </g>
      <g>
        <g>
          <path class="cls-1" d="m86.06,153.9l2,2.54s-2.43,3.96-1.6,7.63c1.28,5.67,7.98,6.87,7.98,6.87,0,0-8.17,16.9-4.11,22.34,4.07,5.43,15.89-3.7,15.89-3.7,0,0,23.16-20.96,20.73-31.37.66-.73,1.25-1.81,1.25-1.81,0,0-1.07-4.84-4.18-8.97l-1.29-.42s-8.76-6.6-12.61-12.03c-4.36-5.03-8.72-15.09-8.72-15.09l-.11-1.35c-3.28-3.99-7.73-6.18-7.73-6.18,0,0-1.19.32-2.05.79-9.54-4.82-35.37,12.75-35.37,12.75,0,0-11.66,9.34-7.34,14.57,4.32,5.23,22.67,1.27,22.67,1.27,0,0-.41,6.79,4.8,9.37,3.37,1.67,7.79.24,7.79.24l2,2.54Z"/>
          <g>
            <path class="cls-1" d="m51.07,130.96s-3.42,4.26-.61,7.22c3.16,4.02,24.63.15,24.63.15,0,0-3.07,4.5.44,8.96,3.5,4.46,9.23,1.16,9.23,1.16l-.69,2.91s-5.95,1.59-8.27-.5c-4.47-2.8-4.32-9.11-4.32-9.11,0,0-11.15,1.79-14.58,1.4-3.44-.39-6.65-.62-8.27-2.9-1.63-2.28.26-6.05.26-6.05l2.19-3.23Z"/>
            <path class="cls-1" d="m100.07,192.99s-4.95,2.32-7.16-1.11c-3.16-4.02,5.66-23.98,5.66-23.98,0,0-5.1,1.92-8.6-2.54-3.5-4.46,1.05-9.25,1.05-9.25h-2.99s-2.95,5.4-1.46,8.14c1.67,5,7.84,6.35,7.84,6.35,0,0-4.36,10.41-4.79,13.84-.43,3.43-.96,6.61.87,8.73,1.83,2.12,5.94,1.18,5.94,1.18l3.66-1.37Z"/>
          </g>
        </g>
        <g>
          <path class="cls-1" d="m96.02,147.09c-.58.45-1.42.35-1.87-.22-.45-.58-.35-1.42.22-1.87.58-.45,1.42-.35,1.87.22.45.58.35,1.42-.22,1.87Z"/>
          <path class="cls-1" d="m92.59,149.79c-.58.45-1.42.35-1.87-.22-.45-.58-.35-1.42.22-1.87s1.42-.35,1.87.22c.45.58.35,1.42-.22,1.87Z"/>
        </g>
        <g>
          <g>
            <path class="cls-1" d="m84.19,146.3c-2.14,1.68-5.23,1.31-6.92-.83-1.68-2.14-1.31-5.23.83-6.92,2.14-1.68,5.23-1.31,6.92.83,1.68,2.14,1.31,5.23-.83,6.92Z"/>
            <path class="cls-1" d="m84.53,143.03c-.45,1.96-2.4,3.19-4.37,2.74s-3.19-2.4-2.74-4.37,1.16,2.25,3.12,2.7c1.96.45,4.44-3.04,3.99-1.07Z"/>
          </g>
          <g>
            <path class="cls-1" d="m98.96,165.08c-2.14,1.68-5.23,1.31-6.92-.83-1.68-2.14-1.31-5.23.83-6.92,2.14-1.68,5.23-1.31,6.92.83,1.68,2.14,1.31,5.23-.83,6.92Z"/>
            <path class="cls-1" d="m99.3,161.8c-.45,1.96-2.4,3.19-4.37,2.74-1.96-.45-3.19-2.4-2.74-4.37.45-1.96,1.16,2.25,3.12,2.7,1.96.45,4.44-3.04,3.99-1.07Z"/>
          </g>
        </g>
        <rect class="cls-1" x="98.1" y="128.45" width="11.37" height="21.88" rx="5.69" ry="5.69" transform="translate(-63.97 93.99) rotate(-38.19)"/>
        <g>
          <path class="cls-1" d="m119.92,167.28c-4.26,3.35-10.43,2.61-13.77-1.65-3.35-4.26-2.61-10.43,1.65-13.77,4.26-3.35,10.43-2.61,13.77,1.65,3.35,4.26,2.61,10.43-1.65,13.77Z"/>
          <g>
            <path class="cls-1" d="m110.98,165.1c-1.11.87-2.72.68-3.59-.43s-.68-2.72.43-3.59c1.11-.87,2.72-.68,3.59.43.87,1.11.68,2.72-.43,3.59Z"/>
            <path class="cls-1" d="m119.91,158.07c-1.11.87-2.72.68-3.59-.43-.87-1.11-.68-2.72.43-3.59,1.11-.87,2.72-.68,3.59.43.87,1.11.68,2.72-.43,3.59Z"/>
            <path class="cls-1" d="m119.38,162.46c.87,1.11.68,2.72-.43,3.59s-2.72.68-3.59-.43c-.87-1.11-.68-2.72.43-3.59s2.72-.68,3.59.43Z"/>
            <path class="cls-1" d="m112.36,153.52c.87,1.11.68,2.72-.43,3.59s-2.72.68-3.59-.43-.68-2.72.43-3.59c1.11-.87,2.72-.68,3.59.43Z"/>
          </g>
        </g>
        <g>
          <circle class="cls-1" cx="86" cy="125.13" r="10" transform="translate(-42.06 206.7) rotate(-88)"/>
          <g>
            <polygon class="cls-1" points="88.01 120.63 91.41 117.95 94.45 121.81 91.05 124.49 88 123.76 88.01 120.63"/>
            <polygon class="cls-1" points="81.96 124.77 78.56 127.44 81.6 131.3 85 128.63 85.01 125.49 81.96 124.77"/>
            <polygon class="cls-1" points="90.38 126.14 93.06 129.54 89.2 132.57 86.52 129.17 87.25 126.13 90.38 126.14"/>
            <polygon class="cls-1" points="86.24 120.09 83.57 116.69 79.71 119.73 82.39 123.13 85.52 123.14 86.24 120.09"/>
          </g>
        </g>
      </g>
      <line class="cls-2" x1="28" y1="107.13" x2="66" y2="107.13"/>
      <line class="cls-2" x1="5" y1="120.13" x2="44" y2="120.13"/>
      <line class="cls-2" x1="9" y1="149.13" x2="47" y2="149.13"/>
      <line class="cls-2" y1="135.13" x2="39" y2="135.13"/>
      <line class="cls-2" x1="28" y1="164.13" x2="66" y2="164.13"/>
      <line class="cls-2" x1="45" y1="179.13" x2="83" y2="179.13"/>
      <line class="cls-2" x1="33" y1="195.13" x2="71" y2="195.13"/>
    </g>
  </g>
</svg>